<svg id="Layer_1" data-name="Layer 1" xmlns="http://www.w3.org/2000/svg" viewBox="0 0 75.31 70.92"><defs><style>.cls-1{fill:#6d7993;}</style></defs><path class="cls-1" d="M82.07,22.16h-66a4.92,4.92,0,0,0,0,9.83H82a4.84,4.84,0,0,0,4.73-4.91A4.74,4.74,0,0,0,82.07,22.16Z" transform="translate(-11.37 -22.16)"/><path class="cls-1" d="M16.1,62.6H67.29a4.92,4.92,0,0,0,0-9.83H16.1a4.92,4.92,0,0,0,0,9.83Z" transform="translate(-11.37 -22.16)"/><path class="cls-1" d="M82.07,83.25h-66a4.92,4.92,0,0,0,0,9.83H82a4.84,4.84,0,0,0,4.73-4.92A4.74,4.74,0,0,0,82.07,83.25Z" transform="translate(-11.37 -22.16)"/></svg>